Coordinates
version=1
nRows=26
nColumns=22
inDegrees=yes

Units are S.I. units (second, meters, Newtons, ...)
If the header above contains a line with 'inDegrees', this indicates whether rotational values are in degrees (yes) or radians (no).

endheader
time	pelvis_tilt	pelvis_list	pelvis_rotation	pelvis_tx	pelvis_ty	pelvis_tz	hip_flexion_r	hip_adduction_r	hip_rotation_r	knee_angle_r	ankle_angle_r	subtalar_angle_r	hip_flexion_l	hip_adduction_l	hip_rotation_l	knee_angle_l	ankle_angle_l	subtalar_angle_l	lumbar_extension	lumbar_bending	lumbar_rotation
      3.52000000	     -1.25219120	     -1.27104141	     17.31627262	     -0.02734736	      0.94763629	     -0.52078557	     31.32253316	      0.34666591	    -12.90102602	    -47.49926870	      9.30670878	     -3.93358860	      4.48571190	     -4.25263593	     -2.27933934	    -19.44920055	     14.58459253	      3.80868445	     -9.57570807	     -1.93256049	     -5.83664490
      3.53000000	     -1.26685031	     -1.15160867	     16.69538132	     -0.01960341	      0.94658778	     -0.52259923	     31.45112064	      0.09226230	    -13.60204058	    -45.14520929	      9.43334321	     -3.91754187	      3.69117634	     -4.13700057	     -2.96727710	    -19.23624981	     14.99885177	      3.67257547	     -9.61168009	     -2.00108480	     -6.09032231
      3.54000000	     -1.28043888	     -1.02717286	     16.08060296	     -0.01177923	      0.94537151	     -0.52428825	     31.49827409	     -0.13526079	    -14.34866978	    -42.68038879	      9.55403952	     -3.91103995	      2.91871994	     -4.01071591	     -3.64427523	    -19.06589863	     15.43260766	      3.54534847	     -9.64565639	     -2.07338989	     -6.30648478
      3.55000000	     -1.30467251	     -0.90828228	     15.47364631	     -0.00388245	      0.94397925	     -0.52584131	     31.48305349	     -0.31391405	    -15.12222264	    -40.10801483	      9.68223254	     -3.91221365	      2.18510444	     -3.88335244	     -4.30120163	    -18.94115295	     15.89357429	      3.42492950	     -9.66169169	     -2.14146950	     -6.50327807
      3.56000000	     -1.32553454	     -0.78311518	     14.87160262	      0.00412276	      0.94245553	     -0.52730993	     31.39406577	     -0.46251926	    -15.96068514	    -37.45574655	      9.82123780	     -3.92059473	      1.45555360	     -3.74363123	     -4.94592052	    -18.83743117	     16.35450849	      3.32948409	     -9.67263348	     -2.20655123	     -6.65052833
      3.57000000	     -1.36278488	     -0.66825820	     14.27653443	      0.01220924	      0.94077452	     -0.52860805	     31.26338492	     -0.54372471	    -16.81772856	    -34.73004504	      9.97091916	     -3.90361973	      0.76889782	     -3.61115568	     -5.56611548	    -18.77549588	     16.83446805	      3.24458781	     -9.65676802	     -2.26998264	     -6.78925828
      3.58000000	     -1.41354474	     -0.55934119	     13.68909306	      0.02038549	      0.93895495	     -0.52978337	     31.09635131	     -0.56799224	    -17.69940217	    -31.96449601	     10.15374541	     -3.84446277	      0.11835056	     -3.48169608	     -6.17582413	    -18.75368074	     17.32235847	      3.17818570	     -9.61413002	     -2.32551560	     -6.90954852
      3.59000000	     -1.47765470	     -0.45358722	     13.10807095	      0.02865363	      0.93702238	     -0.53081452	     30.90472586	     -0.53744699	    -18.59693771	    -29.19360123	     10.35775230	     -3.72733333	     -0.50859713	     -3.35352096	     -6.76011173	    -18.75211644	     17.80073755	      3.15085790	     -9.54763193	     -2.38067824	     -7.00312050
      3.60000000	     -1.56376424	     -0.35943355	     12.53746742	      0.03701225	      0.93497722	     -0.53170788	     30.70832372	     -0.44397425	    -19.47973590	    -26.45294746	     10.58220941	     -3.54982245	     -1.09661433	     -3.23518482	     -7.31729972	    -18.77912331	     18.27349676	      3.16131664	     -9.44535158	     -2.42456007	     -7.08693535
      3.61000000	     -1.67532620	     -0.28074634	     11.98213325	      0.04545851	      0.93283207	     -0.53245840	     30.52334129	     -0.29070088	    -20.33294356	    -23.79000780	     10.81274192	     -3.33549598	     -1.63911034	     -3.13321155	     -7.83883942	    -18.83800673	     18.73530579	      3.20267055	     -9.30466452	     -2.45364011	     -7.16747878
      3.62000000	     -1.77592283	     -0.20599753	     11.44253569	      0.05404326	      0.93068602	     -0.53308391	     30.31015459	     -0.08823152	    -21.14773046	    -21.24724952	     11.06733425	     -3.04094499	     -2.20284789	     -3.03556011	     -8.28327741	    -18.89012081	     19.15331099	      3.37375803	     -9.16638601	     -2.46995199	     -7.24259666
      3.63000000	     -1.90320733	     -0.16042731	     10.92568310	      0.06273636	      0.92847077	     -0.53358519	     30.14106028	      0.16049753	    -21.93615113	    -18.90853570	     11.26775283	     -2.79962525	     -2.70673859	     -2.97509387	     -8.70435492	    -18.99568707	     19.56669081	      3.52406621	     -8.98687996	     -2.45151597	     -7.33548871
      3.64000000	     -2.04953837	     -0.13883075	     10.42565038	      0.07156707	      0.92622169	     -0.53395853	     30.02330345	      0.44179621	    -22.69847705	    -16.84480405	     11.40399466	     -2.64699562	     -3.17046070	     -2.94622792	     -9.10246452	    -19.14118761	     19.94848272	      3.62078412	     -8.77472268	     -2.40134085	     -7.44942399
      3.65000000	     -2.14035825	     -0.12329540	      9.94039175	      0.08060190	      0.92410669	     -0.53421796	     29.87445354	      0.74146955	    -23.43501491	    -15.10540273	     11.53992146	     -2.48261913	     -3.71299979	     -2.93397393	     -9.42410331	    -19.26761565	     20.26322764	      3.86980581	     -8.61706374	     -2.32420598	     -7.57126657
      3.66000000	     -2.21656064	     -0.11455447	      9.45786905	      0.08982906	      0.92205968	     -0.53434379	     29.76495893	      1.04197168	    -24.10555005	    -13.77046191	     11.66951629	     -2.35084237	     -4.27277768	     -2.93523390	     -9.70339547	    -19.40934891	     20.50748078	      4.21772334	     -8.46687474	     -2.22851696	     -7.69052412
      3.67000000	     -2.29059923	     -0.12929777	      8.98152438	      0.09921784	      0.92006726	     -0.53434239	     29.72357031	      1.34057382	    -24.70781424	    -12.88373011	     11.70609559	     -2.32149166	     -4.81368044	     -2.97389016	     -9.99043306	    -19.59572579	     20.69896716	      4.46995045	     -8.31395813	     -2.09314255	     -7.84410055
      3.68000000	     -2.32568224	     -0.13929727	      8.49208809	      0.10883070	      0.91822310	     -0.53420038	     29.70755913	      1.61239522	    -25.19534590	    -12.46923255	     11.72948774	     -2.39177669	     -5.41496786	     -3.01225879	    -10.23352612	    -19.77415734	     20.78917611	      4.92273093	     -8.19828648	     -1.94682753	     -7.96886050
      3.69000000	     -2.34981551	     -0.18384265	      8.00448717	      0.11861256	      0.91648313	     -0.53393235	     29.73631360	      1.88506298	    -25.52188833	    -12.48256355	     11.64674074	     -2.57199352	     -5.99386960	     -3.10246379	    -10.48304208	    -20.01881763	     20.80034159	      5.29246648	     -8.08861106	     -1.74296878	     -8.12140430
      3.70000000	     -2.36594345	     -0.22363459	      7.49906911	      0.12857242	      0.91488919	     -0.53353128	     29.81152968	      2.12249205	    -25.64508123	    -12.90513040	     11.45099092	     -2.93874113	     -6.57411376	     -3.18824894	    -10.69552788	    -20.29465184	     20.68925425	      5.81091180	     -7.98745873	     -1.52794277	     -8.25510501
      3.71000000	     -2.38876239	     -0.29415192	      6.99692746	      0.13867824	      0.91343410	     -0.53299405	     29.93871296	      2.35635346	    -25.58686411	    -13.65932275	     11.07999491	     -3.53333138	     -7.10822757	     -3.30872344	    -10.81548672	    -20.64441356	     20.52459567	      6.39855074	     -7.87692165	     -1.26861707	     -8.38166755
      3.72000000	     -2.41678735	     -0.40868267	      6.48603687	      0.14894374	      0.91217479	     -0.53231463	     30.09345365	      2.61846428	    -25.35130335	    -14.63796908	     10.54124600	     -4.24719366	     -7.58672930	     -3.48622547	    -10.91564901	    -21.08495955	     20.20460630	      7.00744651	     -7.75589667	     -0.94014521	     -8.52384569
      3.73000000	     -2.45798679	     -0.57535891	      5.94829708	      0.15932900	      0.91113926	     -0.53142541	     30.27685104	      2.94122342	    -24.91560300	    -15.75468286	      9.82338779	     -5.01137855	     -7.98162088	     -3.72587982	    -10.96480044	    -21.65366883	     19.73466323	      7.67022374	     -7.62142390	     -0.54838644	     -8.62708144
      3.74000000	     -2.51790739	     -0.79745628	      5.39309813	      0.16982850	      0.91037849	     -0.53033466	     30.47506743	      3.33447640	    -24.33296265	    -16.92248607	      8.97120349	     -5.83622834	     -8.28197157	     -4.02469404	    -10.89885860	    -22.35087232	     19.07901692	      8.42143731	     -7.46837720	     -0.08892352	     -8.70193410
      3.75000000	     -2.60290462	     -1.05243925	      4.78229948	      0.18039132	      0.90988853	     -0.52895775	     30.69632880	      3.80653037	    -23.54593786	    -18.10942872	      8.05950392	     -6.50759824	     -8.45270504	     -4.37322344	    -10.84011061	    -23.23227363	     18.24523762	      9.20731705	     -7.29922762	      0.40056474	     -8.74521949
      3.76000000	     -2.71169675	     -1.33459164	      4.11987599	      0.19103126	      0.90970114	     -0.52729845	     30.91343170	      4.36042094	    -22.60967771	    -19.26179250	      7.14459241	     -7.03133024	     -8.49843613	     -4.75230875	    -10.69327786	    -24.28698441	     17.18760211	     10.05795961	     -7.11179375	      0.90894206	     -8.73017562
      3.77000000	     -2.83509462	     -1.60705941	      3.40145134	      0.20171993	      0.90981704	     -0.52536918	     31.10485253	      4.96216173	    -21.56798083	    -20.36772732	      6.28711473	     -7.38721864	     -8.41139533	     -5.12782068	    -10.48219889	    -25.53930597	     15.89198732	     10.96148322	     -6.91999140	      1.39339127	     -8.66974910
